<mxfile host="Electron" agent="Mozilla/5.0 (Windows NT 10.0; Win64; x64) AppleWebKit/537.36 (KHTML, like Gecko) draw.io/24.7.17 Chrome/128.0.6613.36 Electron/32.0.1 Safari/537.36" version="24.7.17">
  <diagram name="Pagina-1" id="dsAorsU7TUws1y3TOcJ_">
    <mxGraphModel dx="473" dy="274" grid="1" gridSize="10" guides="1" tooltips="1" connect="1" arrows="1" fold="1" page="1" pageScale="1" pageWidth="827" pageHeight="1169" math="1" shadow="0">
      <root>
        <mxCell id="0" />
        <mxCell id="1" parent="0" />
        <mxCell id="V4XHOsPyzwp_EnAE9oL1-1" value="" style="shape=cylinder3;whiteSpace=wrap;html=1;boundedLbl=1;backgroundOutline=1;size=17.26436781609192;rotation=90;fillColor=none;" vertex="1" parent="1">
          <mxGeometry x="370" y="286.25" width="60" height="247.5" as="geometry" />
        </mxCell>
        <mxCell id="V4XHOsPyzwp_EnAE9oL1-4" value="\(ds\)" style="text;html=1;align=center;verticalAlign=middle;whiteSpace=wrap;rounded=0;" vertex="1" parent="1">
          <mxGeometry x="360" y="350" width="60" height="30" as="geometry" />
        </mxCell>
        <mxCell id="V4XHOsPyzwp_EnAE9oL1-6" value="\(\bar v_d\)" style="text;html=1;align=center;verticalAlign=middle;whiteSpace=wrap;rounded=0;" vertex="1" parent="1">
          <mxGeometry x="440" y="393.12" width="30" height="30" as="geometry" />
        </mxCell>
        <mxCell id="V4XHOsPyzwp_EnAE9oL1-7" value="\(-\)" style="ellipse;whiteSpace=wrap;html=1;aspect=fixed;fontSize=6;fillColor=#dae8fc;gradientColor=#7ea6e0;strokeColor=none;" vertex="1" parent="1">
          <mxGeometry x="310" y="383.12" width="10" height="10" as="geometry" />
        </mxCell>
        <mxCell id="V4XHOsPyzwp_EnAE9oL1-8" value="\(-\)" style="ellipse;whiteSpace=wrap;html=1;aspect=fixed;fontSize=6;fillColor=#dae8fc;gradientColor=#7ea6e0;strokeColor=none;" vertex="1" parent="1">
          <mxGeometry x="310" y="423.12" width="10" height="10" as="geometry" />
        </mxCell>
        <mxCell id="V4XHOsPyzwp_EnAE9oL1-9" value="\(-\)" style="ellipse;whiteSpace=wrap;html=1;aspect=fixed;fontSize=6;fillColor=#dae8fc;gradientColor=#7ea6e0;strokeColor=none;" vertex="1" parent="1">
          <mxGeometry x="290" y="403.12" width="10" height="10" as="geometry" />
        </mxCell>
        <mxCell id="V4XHOsPyzwp_EnAE9oL1-10" value="\(-\)" style="ellipse;whiteSpace=wrap;html=1;aspect=fixed;fontSize=6;fillColor=#dae8fc;gradientColor=#7ea6e0;strokeColor=none;" vertex="1" parent="1">
          <mxGeometry x="340" y="413.12" width="10" height="10" as="geometry" />
        </mxCell>
        <mxCell id="V4XHOsPyzwp_EnAE9oL1-11" value="\(-\)" style="ellipse;whiteSpace=wrap;html=1;aspect=fixed;fontSize=6;fillColor=#dae8fc;gradientColor=#7ea6e0;strokeColor=none;" vertex="1" parent="1">
          <mxGeometry x="360" y="383.12" width="10" height="10" as="geometry" />
        </mxCell>
        <mxCell id="V4XHOsPyzwp_EnAE9oL1-12" value="\(-\)" style="ellipse;whiteSpace=wrap;html=1;aspect=fixed;fontSize=6;fillColor=#dae8fc;gradientColor=#7ea6e0;strokeColor=none;" vertex="1" parent="1">
          <mxGeometry x="420" y="383.12" width="10" height="10" as="geometry" />
        </mxCell>
        <mxCell id="V4XHOsPyzwp_EnAE9oL1-13" value="\(-\)" style="ellipse;whiteSpace=wrap;html=1;aspect=fixed;fontSize=6;fillColor=#dae8fc;gradientColor=#7ea6e0;strokeColor=none;" vertex="1" parent="1">
          <mxGeometry x="420" y="423.12" width="10" height="10" as="geometry" />
        </mxCell>
        <mxCell id="V4XHOsPyzwp_EnAE9oL1-14" value="\(-\)" style="ellipse;whiteSpace=wrap;html=1;aspect=fixed;fontSize=6;fillColor=#dae8fc;gradientColor=#7ea6e0;strokeColor=none;" vertex="1" parent="1">
          <mxGeometry x="450" y="383.12" width="10" height="10" as="geometry" />
        </mxCell>
        <mxCell id="V4XHOsPyzwp_EnAE9oL1-15" value="\(-\)" style="ellipse;whiteSpace=wrap;html=1;aspect=fixed;fontSize=6;fillColor=#dae8fc;gradientColor=#7ea6e0;strokeColor=none;" vertex="1" parent="1">
          <mxGeometry x="470" y="423.12" width="10" height="10" as="geometry" />
        </mxCell>
        <mxCell id="V4XHOsPyzwp_EnAE9oL1-17" value="\(-\)" style="ellipse;whiteSpace=wrap;html=1;aspect=fixed;fontSize=6;fillColor=#dae8fc;gradientColor=#7ea6e0;strokeColor=none;" vertex="1" parent="1">
          <mxGeometry x="370" y="416.87" width="10" height="10" as="geometry" />
        </mxCell>
        <mxCell id="V4XHOsPyzwp_EnAE9oL1-18" value="" style="shape=cylinder3;whiteSpace=wrap;html=1;boundedLbl=1;backgroundOutline=1;size=17.26436781609192;rotation=90;fillColor=none;dashed=1;" vertex="1" parent="1">
          <mxGeometry x="360" y="393.12" width="60" height="33.75" as="geometry" />
        </mxCell>
        <mxCell id="V4XHOsPyzwp_EnAE9oL1-19" value="" style="endArrow=classic;html=1;rounded=0;fillColor=#0050ef;strokeColor=#001DBC;" edge="1" parent="1">
          <mxGeometry width="50" height="50" relative="1" as="geometry">
            <mxPoint x="390" y="409.9" as="sourcePoint" />
            <mxPoint x="445" y="409.9" as="targetPoint" />
          </mxGeometry>
        </mxCell>
        <mxCell id="V4XHOsPyzwp_EnAE9oL1-20" value="\(-\)" style="ellipse;whiteSpace=wrap;html=1;aspect=fixed;fontSize=6;fillColor=#dae8fc;gradientColor=#7ea6e0;strokeColor=none;" vertex="1" parent="1">
          <mxGeometry x="395" y="426.87" width="10" height="10" as="geometry" />
        </mxCell>
      </root>
    </mxGraphModel>
  </diagram>
</mxfile>
